<svg width="307" height="275" viewBox="0 0 307 275" fill="none" xmlns="http://www.w3.org/2000/svg">
<rect width="307" height="275" fill="#F5F5F5"/>
<rect width="307" height="275" fill="#1B2A3B"/>
<path d="M2.15501 209.822C6.31774 205.659 7.63181 204.25 13.4889 204.965C17.5003 205.454 21.4956 207.231 25.5063 207.231C29.4754 207.231 30.8597 201.934 33.8898 200.251C35.9867 199.086 38.3045 199.333 40.5102 199.963C46.493 201.673 50.4052 194.352 52.9234 190.284C55.582 185.99 55.389 193.714 56.8453 194.962C59.5474 197.278 59.9897 191.267 60.7312 188.881C66.6982 169.683 70.3223 149.766 76.7785 130.737C78.8039 124.767 83.0895 138.375 83.5428 139.372C89.5132 152.507 96.8426 166.122 100.13 180.282C100.674 182.625 100.775 186.778 104.483 184.923C106.62 183.855 108.895 181.088 110.6 179.382C113.411 176.572 114.862 180.474 117.436 181.829C122.916 184.713 127.499 173.158 129.238 169.164C133.424 159.551 135.657 172.506 138.125 170.531C140.894 168.316 142.988 164.031 144.566 161.104C149.079 152.734 152.635 143.885 157.231 135.558C158.749 132.807 158.96 130.852 160.865 133.471C162.571 135.817 165.654 141.691 168.637 138.293C177.815 127.834 182.581 113.416 187.346 100.621C188.81 96.6907 190.399 92.7313 191.628 88.7117C192.6 85.5356 192.95 90.9855 193.139 91.806C197.954 112.643 203.473 133.351 206.272 154.592C206.676 157.656 207.368 161.093 207.46 164.199C207.473 164.656 207.232 165.914 207.603 166.286C207.907 166.589 208.312 166.378 208.539 166.106C211.507 162.544 213.234 156.256 214.943 152.181C218.631 143.39 222.118 134.518 225.738 125.7C227.646 121.05 230.268 116.34 231.782 111.523C232.002 110.824 232.07 107.803 232.07 110.084C232.07 124.305 235.471 81.7996 238.547 67.915C239.409 64.0201 241.785 59.4465 241.785 55.3938C241.785 53.1876 245.057 59.6506 245.167 59.8553C251.618 71.8362 256.309 84.935 260.387 97.8867C261.259 100.658 262.349 103.304 262.51 106.198C262.614 108.081 263.828 104.508 263.841 104.471C265.044 100.963 265.386 97.5358 265.892 93.8928C267.354 83.363 273.989 72.9899 277.945 63.3454C278.076 63.0267 279.244 55.7213 280.968 57.4446C283.311 59.7878 283.987 65.0943 284.566 68.2748C285.511 73.474 292.718 62.7625 293.597 61.1506C294.811 58.9246 297.517 56.9421 299.282 55.1779C300.891 53.5681 302.168 51.1481 304.607 51.1481" stroke="#47596D" stroke-linecap="round"/>
</svg>
