<svg width="394" height="550" viewBox="0 0 394 550" fill="none" xmlns="http://www.w3.org/2000/svg">
<rect width="394" height="550" fill="#F5F5F5"/>
<rect width="394" height="550" fill="#1FBC75"/>
<g filter="url(#filter0_d_0_1)">
<rect x="93" y="275" width="192.255" height="283.989" transform="rotate(-22.7857 93 275)" fill="#1B2E44"/>
</g>
<g filter="url(#filter1_d_0_1)">
<rect x="93" y="275" width="192.255" height="283.989" transform="rotate(-22.7857 93 275)" fill="#1B2E44"/>
</g>
<g filter="url(#filter2_d_0_1)">
<rect x="93" y="275" width="192.255" height="283.989" transform="rotate(-22.7857 93 275)" fill="#1B2E44"/>
</g>
<path d="M151.387 300.813C150.878 301.028 150.384 301.133 149.904 301.127C149.428 301.111 149.009 300.993 148.647 300.772C148.282 300.545 148.006 300.222 147.821 299.805L148.894 299.352C149.083 299.698 149.36 299.941 149.724 300.083C150.092 300.214 150.526 300.174 151.027 299.962C151.506 299.76 151.832 299.483 152.005 299.132C152.183 298.77 152.192 298.402 152.033 298.026C151.908 297.731 151.726 297.526 151.486 297.41C151.246 297.294 150.984 297.24 150.701 297.247C150.417 297.254 150.045 297.289 149.586 297.353C149.022 297.435 148.557 297.476 148.191 297.474C147.833 297.469 147.484 297.373 147.145 297.186C146.809 296.989 146.541 296.651 146.338 296.172C146.161 295.752 146.11 295.335 146.187 294.92C146.264 294.506 146.456 294.129 146.765 293.79C147.081 293.449 147.489 293.172 147.99 292.96C148.712 292.655 149.378 292.586 149.988 292.754C150.604 292.919 151.068 293.288 151.38 293.86L150.274 294.327C150.113 294.047 149.849 293.855 149.483 293.749C149.114 293.636 148.705 293.674 148.255 293.864C147.835 294.042 147.539 294.297 147.367 294.63C147.192 294.956 147.187 295.314 147.352 295.705C147.471 295.985 147.645 296.18 147.874 296.292C148.111 296.4 148.364 296.454 148.633 296.453C148.906 296.442 149.277 296.407 149.747 296.347C150.315 296.272 150.783 296.239 151.152 296.249C151.517 296.251 151.871 296.348 152.214 296.542C152.553 296.729 152.826 297.066 153.031 297.552C153.19 297.928 153.24 298.323 153.181 298.739C153.122 299.155 152.941 299.548 152.638 299.92C152.334 300.291 151.917 300.589 151.387 300.813ZM159.548 293.43C159.629 293.622 159.703 293.829 159.771 294.052L154.93 296.098C155.219 296.679 155.619 297.062 156.131 297.245C156.647 297.418 157.17 297.392 157.701 297.168C158.136 296.984 158.455 296.732 158.658 296.412C158.866 296.081 158.957 295.721 158.931 295.332L160.015 294.874C160.099 295.525 159.975 296.137 159.645 296.711C159.311 297.278 158.783 297.714 158.061 298.019C157.486 298.262 156.916 298.351 156.35 298.286C155.791 298.218 155.283 298.003 154.826 297.64C154.366 297.27 154.003 296.772 153.739 296.146C153.474 295.519 153.367 294.917 153.418 294.34C153.47 293.762 153.667 293.253 154.011 292.813C154.359 292.362 154.827 292.012 155.417 291.763C155.992 291.52 156.553 291.43 157.101 291.494C157.649 291.558 158.134 291.761 158.557 292.103C158.984 292.435 159.314 292.878 159.548 293.43ZM158.42 293.659C158.258 293.276 158.035 292.984 157.75 292.783C157.462 292.575 157.141 292.463 156.787 292.447C156.438 292.421 156.086 292.483 155.732 292.632C155.224 292.847 154.858 293.193 154.633 293.67C154.417 294.144 154.404 294.679 154.595 295.275L158.42 293.659ZM161.271 290.383L162.78 293.953C162.904 294.248 163.056 294.432 163.234 294.504C163.409 294.569 163.651 294.536 163.961 294.405L164.701 294.092L165.061 294.944L164.155 295.327C163.595 295.563 163.12 295.612 162.731 295.472C162.342 295.333 162.023 294.968 161.774 294.379L160.265 290.808L159.48 291.14L159.13 290.311L159.915 289.979L159.27 288.454L160.276 288.029L160.921 289.554L162.501 288.886L162.852 289.715L161.271 290.383ZM171.365 283.199L170.883 289.057L172.112 291.964L171.106 292.389L169.877 289.482L165.33 285.75L166.446 285.278L169.996 288.377L170.249 283.671L171.365 283.199ZM178.366 289.439C177.798 289.678 177.228 289.767 176.655 289.706C176.089 289.641 175.574 289.429 175.109 289.069C174.649 288.699 174.286 288.201 174.021 287.575C173.76 286.956 173.662 286.354 173.728 285.77C173.798 285.176 174.013 284.656 174.371 284.209C174.726 283.755 175.191 283.406 175.766 283.164C176.341 282.921 176.915 282.83 177.488 282.892C178.058 282.946 178.576 283.153 179.04 283.513C179.512 283.869 179.88 284.36 180.145 284.987C180.41 285.613 180.503 286.225 180.426 286.822C180.352 287.409 180.134 287.931 179.772 288.388C179.409 288.846 178.94 289.196 178.366 289.439ZM177.992 288.554C178.353 288.402 178.656 288.174 178.901 287.87C179.147 287.567 179.293 287.205 179.342 286.785C179.398 286.362 179.323 285.908 179.117 285.421C178.912 284.935 178.641 284.563 178.307 284.305C177.972 284.047 177.615 283.902 177.237 283.871C176.856 283.832 176.485 283.889 176.124 284.041C175.756 284.197 175.452 284.425 175.215 284.725C174.981 285.015 174.844 285.369 174.803 285.785C174.762 286.202 174.844 286.654 175.049 287.14C175.258 287.634 175.522 288.013 175.843 288.277C176.17 288.538 176.521 288.69 176.894 288.731C177.265 288.766 177.631 288.707 177.992 288.554ZM185.565 279.14L188.124 285.198L187.118 285.623L186.74 284.727C186.679 285.118 186.513 285.475 186.241 285.798C185.974 286.111 185.634 286.354 185.221 286.528C184.75 286.728 184.286 286.811 183.829 286.778C183.369 286.738 182.946 286.569 182.56 286.272C182.181 285.972 181.873 285.542 181.637 284.982L180.137 281.434L181.132 281.013L182.575 284.429C182.828 285.026 183.173 285.422 183.612 285.619C184.048 285.808 184.528 285.792 185.051 285.571C185.589 285.344 185.943 284.999 186.112 284.537C186.282 284.074 186.232 283.526 185.965 282.892L184.559 279.565L185.565 279.14ZM188.684 278.981C188.715 278.56 188.852 278.185 189.095 277.857C189.346 277.525 189.707 277.259 190.179 277.06L190.618 278.099L190.352 278.211C189.225 278.688 188.92 279.538 189.437 280.761L190.828 284.055L189.823 284.48L187.263 278.422L188.269 277.997L188.684 278.981ZM199.741 273.866C200.012 274.507 200.017 275.135 199.755 275.749C199.498 276.353 198.92 276.845 198.021 277.225L196.54 277.85L197.899 281.067L196.893 281.492L193.637 273.788L196.124 272.737C196.994 272.369 197.742 272.301 198.369 272.531C199.004 272.758 199.461 273.203 199.741 273.866ZM197.67 276.395C198.231 276.159 198.592 275.863 198.754 275.508C198.917 275.152 198.903 274.75 198.713 274.3C198.311 273.35 197.565 273.105 196.475 273.566L194.994 274.192L196.189 277.021L197.67 276.395ZM201.629 275.895C201.368 275.276 201.264 274.682 201.318 274.111C201.37 273.534 201.558 273.024 201.884 272.583C202.217 272.138 202.653 271.802 203.191 271.575C203.721 271.35 204.23 271.27 204.717 271.333C205.204 271.397 205.617 271.561 205.955 271.827L205.487 270.721L206.504 270.291L209.064 276.349L208.047 276.779L207.571 275.651C207.521 276.089 207.347 276.51 207.049 276.914C206.755 277.307 206.346 277.615 205.823 277.836C205.285 278.063 204.743 278.136 204.196 278.054C203.649 277.973 203.149 277.745 202.696 277.372C202.243 276.999 201.888 276.507 201.629 275.895ZM206.763 273.739C206.57 273.282 206.309 272.923 205.982 272.662C205.654 272.401 205.295 272.249 204.903 272.206C204.516 272.152 204.134 272.205 203.758 272.364C203.383 272.523 203.077 272.756 202.843 273.063C202.608 273.371 202.47 273.733 202.429 274.15C202.388 274.567 202.464 275.004 202.657 275.461C202.853 275.925 203.117 276.291 203.447 276.56C203.775 276.821 204.132 276.978 204.52 277.032C204.904 277.078 205.284 277.021 205.66 276.863C206.035 276.704 206.341 276.471 206.575 276.163C206.814 275.845 206.954 275.477 206.995 275.06C207.033 274.636 206.956 274.196 206.763 273.739ZM212.95 274.824C212.486 275.02 212.037 275.119 211.603 275.12C211.166 275.113 210.782 275.015 210.45 274.825C210.115 274.628 209.858 274.35 209.68 273.991L210.719 273.552C210.877 273.842 211.121 274.029 211.452 274.115C211.791 274.198 212.167 274.152 212.58 273.977C212.963 273.815 213.229 273.603 213.379 273.34C213.528 273.077 213.548 272.817 213.439 272.559C213.327 272.294 213.127 272.148 212.838 272.123C212.546 272.09 212.127 272.115 211.58 272.198C211.081 272.27 210.663 272.308 210.325 272.311C209.992 272.305 209.673 272.227 209.367 272.078C209.065 271.919 208.832 271.644 208.667 271.254C208.536 270.944 208.508 270.621 208.584 270.286C208.659 269.95 208.835 269.637 209.111 269.346C209.385 269.048 209.739 268.807 210.174 268.624C210.845 268.34 211.458 268.281 212.014 268.445C212.57 268.61 212.987 268.981 213.265 269.558L212.26 269.983C212.104 269.675 211.867 269.476 211.55 269.384C211.241 269.289 210.891 269.324 210.5 269.489C210.139 269.641 209.885 269.84 209.736 270.085C209.588 270.33 209.567 270.578 209.673 270.829C209.757 271.028 209.89 271.167 210.071 271.247C210.256 271.316 210.462 271.35 210.688 271.351C210.918 271.34 211.227 271.31 211.613 271.259C212.098 271.193 212.502 271.162 212.824 271.164C213.143 271.16 213.447 271.231 213.735 271.379C214.031 271.523 214.26 271.778 214.423 272.143C214.563 272.475 214.597 272.812 214.525 273.155C214.453 273.498 214.28 273.819 214.007 274.117C213.737 274.404 213.385 274.64 212.95 274.824ZM218.725 272.383C218.261 272.58 217.812 272.678 217.378 272.679C216.941 272.673 216.557 272.575 216.225 272.385C215.89 272.188 215.633 271.91 215.455 271.551L216.494 271.112C216.652 271.401 216.896 271.589 217.227 271.675C217.566 271.757 217.942 271.711 218.355 271.537C218.738 271.375 219.004 271.163 219.154 270.9C219.303 270.637 219.323 270.376 219.214 270.118C219.102 269.853 218.902 269.708 218.613 269.682C218.321 269.649 217.902 269.674 217.355 269.758C216.856 269.83 216.438 269.867 216.101 269.871C215.768 269.864 215.448 269.786 215.142 269.638C214.84 269.479 214.607 269.204 214.442 268.813C214.311 268.504 214.283 268.181 214.359 267.845C214.434 267.51 214.61 267.196 214.887 266.906C215.16 266.608 215.514 266.367 215.949 266.183C216.62 265.9 217.233 265.84 217.789 266.005C218.345 266.17 218.762 266.54 219.041 267.117L218.035 267.543C217.879 267.235 217.642 267.035 217.325 266.943C217.016 266.848 216.666 266.883 216.276 267.048C215.914 267.201 215.66 267.4 215.511 267.645C215.363 267.89 215.342 268.138 215.448 268.388C215.532 268.587 215.665 268.726 215.846 268.806C216.031 268.875 216.237 268.91 216.463 268.91C216.693 268.9 217.002 268.869 217.388 268.819C217.873 268.753 218.277 268.721 218.599 268.724C218.918 268.719 219.222 268.791 219.51 268.938C219.806 269.083 220.035 269.337 220.198 269.703C220.338 270.034 220.372 270.372 220.3 270.715C220.228 271.058 220.055 271.379 219.782 271.677C219.512 271.964 219.16 272.2 218.725 272.383ZM220.654 267.869C220.389 267.242 220.284 266.644 220.338 266.074C220.39 265.497 220.582 264.985 220.915 264.541C221.255 264.093 221.713 263.747 222.288 263.504C223.032 263.19 223.72 263.112 224.352 263.271C224.991 263.426 225.523 263.792 225.949 264.368L224.865 264.825C224.606 264.501 224.281 264.295 223.888 264.209C223.503 264.12 223.09 264.169 222.648 264.356C222.073 264.599 221.693 264.994 221.507 265.541C221.318 266.081 221.377 266.712 221.682 267.434C221.99 268.164 222.405 268.653 222.927 268.901C223.449 269.15 223.997 269.153 224.572 268.91C225.014 268.723 225.339 268.464 225.547 268.133C225.754 267.802 225.832 267.422 225.781 266.992L226.864 266.534C226.964 267.222 226.849 267.856 226.522 268.437C226.191 269.011 225.661 269.453 224.932 269.761C224.357 270.004 223.79 270.091 223.232 270.023C222.681 269.952 222.18 269.734 221.73 269.368C221.28 269.002 220.922 268.503 220.654 267.869ZM231.712 266.896C231.145 267.135 230.574 267.224 230.001 267.163C229.435 267.098 228.92 266.886 228.455 266.526C227.995 266.156 227.633 265.658 227.368 265.031C227.106 264.412 227.009 263.811 227.075 263.227C227.145 262.633 227.359 262.113 227.717 261.666C228.073 261.212 228.538 260.863 229.113 260.621C229.687 260.378 230.261 260.287 230.835 260.349C231.405 260.403 231.922 260.61 232.387 260.97C232.859 261.326 233.227 261.817 233.492 262.444C233.756 263.07 233.85 263.682 233.772 264.279C233.699 264.866 233.481 265.388 233.118 265.845C232.756 266.303 232.287 266.653 231.712 266.896ZM231.338 266.011C231.7 265.859 232.003 265.631 232.248 265.327C232.493 265.024 232.64 264.662 232.688 264.242C232.744 263.819 232.669 263.365 232.464 262.878C232.258 262.392 231.988 262.02 231.653 261.762C231.318 261.504 230.962 261.359 230.584 261.328C230.203 261.289 229.832 261.346 229.471 261.498C229.102 261.654 228.799 261.882 228.561 262.182C228.327 262.472 228.19 262.825 228.149 263.242C228.108 263.659 228.19 264.111 228.396 264.597C228.605 265.091 228.869 265.47 229.189 265.734C229.517 265.995 229.867 266.147 230.241 266.188C230.612 266.223 230.977 266.164 231.338 266.011ZM234.434 262.033C234.172 261.414 234.069 260.819 234.123 260.249C234.174 259.671 234.363 259.162 234.688 258.72C235.022 258.275 235.461 257.938 236.006 257.707C236.478 257.508 236.963 257.433 237.462 257.483C237.957 257.526 238.387 257.679 238.75 257.942L237.395 254.736L238.412 254.307L241.869 262.486L240.852 262.916L240.371 261.778C240.324 262.223 240.156 262.646 239.865 263.047C239.571 263.44 239.162 263.747 238.639 263.968C238.101 264.196 237.555 264.27 237.001 264.192C236.454 264.11 235.954 263.883 235.501 263.51C235.048 263.137 234.692 262.644 234.434 262.033ZM239.567 259.876C239.374 259.419 239.114 259.06 238.786 258.799C238.459 258.538 238.099 258.386 237.708 258.343C237.32 258.29 236.939 258.342 236.563 258.501C236.187 258.66 235.882 258.893 235.647 259.201C235.412 259.509 235.275 259.871 235.234 260.288C235.193 260.705 235.269 261.141 235.462 261.598C235.658 262.062 235.921 262.429 236.252 262.697C236.579 262.958 236.937 263.116 237.324 263.169C237.708 263.215 238.088 263.159 238.464 263C238.84 262.841 239.145 262.608 239.38 262.3C239.619 261.982 239.759 261.615 239.8 261.198C239.838 260.774 239.76 260.333 239.567 259.876ZM247.717 256.172C247.798 256.363 247.873 256.571 247.941 256.794L243.1 258.84C243.389 259.421 243.789 259.803 244.301 259.987C244.817 260.159 245.34 260.134 245.871 259.909C246.305 259.726 246.624 259.474 246.828 259.153C247.035 258.822 247.126 258.462 247.101 258.074L248.184 257.616C248.268 258.267 248.145 258.879 247.814 259.453C247.48 260.019 246.952 260.455 246.23 260.761C245.655 261.003 245.085 261.092 244.519 261.028C243.961 260.96 243.453 260.744 242.996 260.382C242.535 260.012 242.173 259.514 241.908 258.887C241.643 258.261 241.537 257.659 241.588 257.081C241.639 256.504 241.837 255.995 242.18 255.554C242.528 255.103 242.997 254.753 243.586 254.504C244.161 254.261 244.723 254.172 245.271 254.235C245.819 254.299 246.304 254.502 246.727 254.845C247.154 255.177 247.484 255.619 247.717 256.172ZM246.59 256.401C246.428 256.018 246.204 255.725 245.92 255.524C245.632 255.316 245.311 255.204 244.957 255.189C244.607 255.163 244.256 255.225 243.902 255.374C243.393 255.589 243.027 255.935 242.803 256.412C242.586 256.885 242.574 257.42 242.765 258.017L246.59 256.401Z" fill="white"/>
<path d="M141.642 329.161C141.488 328.796 141.426 328.447 141.458 328.114C141.488 327.777 141.6 327.479 141.794 327.22C141.993 326.959 142.26 326.757 142.595 326.615C143.029 326.432 143.431 326.387 143.799 326.479C144.172 326.57 144.482 326.783 144.731 327.119L144.099 327.386C143.948 327.197 143.758 327.077 143.529 327.026C143.304 326.974 143.063 327.003 142.805 327.112C142.47 327.254 142.248 327.484 142.14 327.803C142.03 328.118 142.064 328.487 142.242 328.908C142.421 329.333 142.664 329.619 142.968 329.764C143.272 329.909 143.592 329.91 143.928 329.769C144.185 329.66 144.375 329.509 144.496 329.315C144.617 329.122 144.663 328.901 144.633 328.65L145.265 328.383C145.323 328.784 145.256 329.154 145.065 329.493C144.872 329.828 144.563 330.085 144.137 330.265C143.802 330.407 143.472 330.458 143.146 330.418C142.824 330.377 142.532 330.249 142.27 330.036C142.007 329.822 141.798 329.531 141.642 329.161ZM145.863 325.979C145.881 325.734 145.961 325.515 146.103 325.323C146.249 325.13 146.46 324.975 146.735 324.859L146.991 325.465L146.836 325.53C146.178 325.808 146 326.304 146.302 327.017L147.114 328.939L146.527 329.187L145.034 325.653L145.621 325.405L145.863 325.979ZM151.353 324.906C151.4 325.018 151.443 325.138 151.483 325.269L148.659 326.462C148.828 326.801 149.061 327.024 149.36 327.131C149.661 327.232 149.966 327.217 150.275 327.086C150.529 326.979 150.715 326.832 150.834 326.645C150.955 326.452 151.008 326.242 150.993 326.015L151.625 325.748C151.674 326.128 151.602 326.485 151.409 326.82C151.214 327.15 150.906 327.405 150.485 327.583C150.15 327.724 149.817 327.776 149.487 327.738C149.161 327.699 148.865 327.573 148.598 327.362C148.33 327.146 148.118 326.855 147.964 326.49C147.81 326.124 147.747 325.773 147.777 325.436C147.807 325.1 147.922 324.803 148.123 324.546C148.326 324.283 148.599 324.078 148.943 323.933C149.278 323.791 149.606 323.739 149.925 323.776C150.245 323.813 150.528 323.932 150.775 324.132C151.024 324.325 151.216 324.583 151.353 324.906ZM150.695 325.039C150.6 324.816 150.47 324.645 150.304 324.528C150.136 324.407 149.949 324.341 149.742 324.332C149.538 324.317 149.333 324.353 149.127 324.44C148.83 324.566 148.617 324.768 148.486 325.046C148.36 325.322 148.352 325.634 148.464 325.982L150.695 325.039ZM151.96 324.794C151.807 324.433 151.747 324.086 151.778 323.753C151.808 323.416 151.918 323.119 152.108 322.861C152.303 322.602 152.557 322.406 152.87 322.273C153.18 322.143 153.477 322.096 153.761 322.133C154.045 322.17 154.286 322.266 154.483 322.42L154.21 321.776L154.804 321.525L156.297 325.058L155.704 325.309L155.426 324.651C155.397 324.907 155.295 325.152 155.121 325.388C154.95 325.617 154.711 325.797 154.406 325.926C154.092 326.058 153.776 326.101 153.457 326.053C153.138 326.006 152.846 325.873 152.582 325.655C152.318 325.438 152.11 325.15 151.96 324.794ZM154.954 323.536C154.842 323.269 154.69 323.06 154.499 322.908C154.308 322.755 154.098 322.667 153.87 322.641C153.644 322.61 153.421 322.641 153.202 322.734C152.983 322.826 152.804 322.962 152.668 323.142C152.531 323.321 152.45 323.533 152.426 323.776C152.402 324.019 152.447 324.274 152.559 324.54C152.674 324.811 152.827 325.025 153.02 325.181C153.211 325.334 153.42 325.425 153.646 325.457C153.87 325.484 154.092 325.451 154.311 325.358C154.53 325.265 154.708 325.129 154.845 324.95C154.984 324.764 155.066 324.55 155.09 324.307C155.112 324.059 155.067 323.802 154.954 323.536ZM156.715 321.287L157.595 323.37C157.668 323.542 157.756 323.649 157.86 323.691C157.962 323.729 158.104 323.71 158.284 323.633L158.716 323.451L158.926 323.947L158.397 324.171C158.071 324.309 157.794 324.337 157.567 324.256C157.34 324.174 157.154 323.962 157.009 323.618L156.128 321.535L155.671 321.728L155.466 321.245L155.924 321.051L155.548 320.162L156.135 319.914L156.511 320.803L157.433 320.414L157.637 320.897L156.715 321.287ZM162.057 320.382C162.104 320.494 162.148 320.615 162.188 320.745L159.364 321.939C159.532 322.278 159.766 322.501 160.064 322.608C160.365 322.708 160.67 322.693 160.98 322.563C161.234 322.455 161.42 322.308 161.538 322.121C161.659 321.928 161.712 321.719 161.698 321.492L162.33 321.225C162.379 321.604 162.307 321.961 162.114 322.296C161.919 322.627 161.611 322.881 161.19 323.059C160.854 323.201 160.522 323.253 160.192 323.215C159.866 323.175 159.57 323.05 159.303 322.838C159.034 322.622 158.823 322.332 158.669 321.966C158.514 321.601 158.452 321.25 158.482 320.913C158.512 320.576 158.627 320.279 158.827 320.022C159.03 319.759 159.304 319.555 159.648 319.41C159.983 319.268 160.31 319.216 160.63 319.253C160.95 319.29 161.233 319.408 161.479 319.608C161.728 319.802 161.921 320.06 162.057 320.382ZM161.399 320.516C161.305 320.292 161.175 320.122 161.009 320.005C160.841 319.883 160.653 319.818 160.447 319.809C160.243 319.794 160.038 319.83 159.832 319.917C159.535 320.042 159.321 320.244 159.191 320.522C159.064 320.798 159.057 321.111 159.168 321.459L161.399 320.516ZM164.383 319.544C164.231 319.183 164.17 318.836 164.202 318.503C164.232 318.166 164.342 317.869 164.532 317.611C164.726 317.352 164.98 317.156 165.294 317.023C165.604 316.893 165.9 316.846 166.185 316.883C166.469 316.92 166.709 317.016 166.906 317.17L166.634 316.526L167.227 316.275L168.72 319.808L168.127 320.059L167.849 319.401C167.82 319.657 167.719 319.902 167.545 320.138C167.373 320.367 167.135 320.547 166.83 320.676C166.516 320.808 166.2 320.851 165.881 320.803C165.562 320.756 165.27 320.623 165.006 320.405C164.742 320.188 164.534 319.901 164.383 319.544ZM167.378 318.286C167.265 318.019 167.113 317.81 166.922 317.658C166.731 317.505 166.522 317.417 166.293 317.392C166.067 317.36 165.845 317.391 165.625 317.484C165.406 317.576 165.228 317.712 165.091 317.892C164.954 318.071 164.874 318.283 164.85 318.526C164.826 318.769 164.87 319.024 164.983 319.29C165.097 319.561 165.251 319.775 165.444 319.931C165.635 320.084 165.843 320.176 166.069 320.207C166.293 320.234 166.515 320.201 166.734 320.108C166.954 320.015 167.132 319.879 167.269 319.7C167.408 319.514 167.49 319.3 167.514 319.057C167.536 318.809 167.49 318.552 167.378 318.286ZM170.754 317.726L170.566 317.281L171.505 313.191L172.208 312.894L173.504 315.963L174.149 315.69L174.365 316.2L173.72 316.472L174.158 317.51L173.578 317.756L173.139 316.718L170.754 317.726ZM171.912 313.741L171.215 316.93L172.95 316.197L171.912 313.741ZM176.833 313.303L177.043 313.799L174.47 314.886L174.26 314.39L176.833 313.303ZM178.066 313.762C177.914 313.401 177.853 313.054 177.885 312.721C177.915 312.384 178.025 312.087 178.215 311.829C178.409 311.57 178.665 311.373 178.983 311.239C179.259 311.122 179.542 311.079 179.833 311.108C180.122 311.133 180.372 311.222 180.584 311.375L179.794 309.506L180.387 309.255L182.403 314.026L181.81 314.277L181.529 313.613C181.502 313.873 181.404 314.119 181.234 314.353C181.063 314.583 180.824 314.762 180.519 314.891C180.205 315.023 179.887 315.067 179.564 315.021C179.245 314.974 178.953 314.841 178.689 314.623C178.424 314.406 178.217 314.118 178.066 313.762ZM181.061 312.504C180.948 312.237 180.796 312.028 180.605 311.876C180.414 311.723 180.205 311.635 179.976 311.609C179.75 311.578 179.528 311.609 179.308 311.702C179.089 311.794 178.911 311.93 178.774 312.11C178.637 312.289 178.557 312.501 178.533 312.744C178.509 312.987 178.553 313.242 178.666 313.508C178.78 313.779 178.934 313.993 179.127 314.149C179.318 314.302 179.526 314.393 179.752 314.425C179.976 314.451 180.198 314.419 180.417 314.326C180.637 314.233 180.815 314.097 180.952 313.918C181.091 313.732 181.173 313.518 181.197 313.275C181.219 313.027 181.173 312.77 181.061 312.504ZM181.962 309.372C181.851 309.419 181.74 309.42 181.63 309.376C181.519 309.331 181.441 309.253 181.394 309.141C181.346 309.029 181.345 308.918 181.39 308.808C181.434 308.698 181.513 308.62 181.624 308.572C181.732 308.527 181.838 308.527 181.944 308.574C182.054 308.619 182.133 308.697 182.18 308.809C182.227 308.92 182.229 309.031 182.184 309.141C182.144 309.25 182.07 309.326 181.962 309.372ZM182.488 309.826L183.982 313.359L183.395 313.607L181.902 310.074L182.488 309.826ZM184.921 308.729C185.226 308.6 185.521 308.554 185.805 308.591C186.094 308.627 186.336 308.722 186.534 308.876L186.261 308.232L186.854 307.981L188.38 311.592C188.516 311.914 188.568 312.229 188.536 312.537C188.506 312.848 188.392 313.13 188.194 313.38C188 313.629 187.733 313.826 187.394 313.969C186.93 314.165 186.496 314.219 186.094 314.131C185.692 314.042 185.383 313.821 185.167 313.466L185.748 313.221C185.903 313.409 186.109 313.524 186.365 313.568C186.624 313.616 186.895 313.58 187.179 313.46C187.501 313.324 187.72 313.112 187.837 312.824C187.958 312.535 187.941 312.208 187.787 311.842L187.474 311.101C187.445 311.356 187.345 311.601 187.176 311.835C187.006 312.069 186.769 312.25 186.463 312.379C186.15 312.512 185.831 312.555 185.508 312.509C185.189 312.462 184.897 312.329 184.633 312.111C184.369 311.894 184.161 311.607 184.01 311.25C183.858 310.889 183.797 310.542 183.829 310.209C183.859 309.872 183.969 309.575 184.159 309.318C184.353 309.058 184.607 308.862 184.921 308.729ZM187.005 309.992C186.892 309.725 186.741 309.516 186.55 309.364C186.358 309.211 186.149 309.123 185.92 309.098C185.694 309.066 185.472 309.097 185.253 309.19C185.033 309.282 184.855 309.418 184.718 309.598C184.581 309.777 184.501 309.989 184.477 310.232C184.453 310.475 184.497 310.73 184.61 310.996C184.725 311.267 184.878 311.481 185.071 311.637C185.262 311.79 185.471 311.882 185.696 311.913C185.921 311.94 186.142 311.907 186.362 311.814C186.581 311.721 186.759 311.585 186.896 311.406C187.035 311.22 187.117 311.006 187.141 310.763C187.163 310.515 187.118 310.258 187.005 309.992ZM187.906 306.86C187.795 306.907 187.684 306.909 187.574 306.864C187.464 306.819 187.385 306.741 187.338 306.629C187.291 306.517 187.289 306.406 187.334 306.296C187.379 306.186 187.457 306.108 187.569 306.06C187.676 306.015 187.783 306.016 187.888 306.062C187.999 306.107 188.077 306.185 188.124 306.297C188.172 306.409 188.173 306.519 188.128 306.63C188.088 306.738 188.014 306.815 187.906 306.86ZM188.433 307.314L189.926 310.847L189.339 311.095L187.846 307.562L188.433 307.314ZM190.353 307.073L191.233 309.155C191.306 309.327 191.394 309.434 191.498 309.476C191.6 309.514 191.741 309.495 191.922 309.419L192.354 309.236L192.564 309.733L192.035 309.956C191.708 310.094 191.431 310.123 191.204 310.041C190.978 309.96 190.791 309.747 190.646 309.403L189.766 307.32L189.308 307.514L189.104 307.03L189.562 306.837L189.186 305.947L189.772 305.699L190.148 306.589L191.07 306.199L191.275 306.683L190.353 307.073ZM194.55 308.962C194.279 309.076 194.017 309.134 193.764 309.134C193.509 309.131 193.285 309.073 193.091 308.963C192.896 308.848 192.746 308.685 192.642 308.476L193.249 308.22C193.34 308.389 193.483 308.498 193.676 308.548C193.874 308.596 194.093 308.57 194.334 308.468C194.557 308.374 194.713 308.25 194.8 308.096C194.887 307.943 194.899 307.791 194.835 307.641C194.77 307.486 194.653 307.401 194.484 307.386C194.314 307.367 194.07 307.381 193.751 307.43C193.459 307.472 193.215 307.494 193.019 307.496C192.825 307.492 192.638 307.447 192.46 307.36C192.284 307.267 192.148 307.107 192.051 306.879C191.975 306.699 191.959 306.51 192.003 306.315C192.047 306.119 192.149 305.936 192.311 305.766C192.47 305.593 192.677 305.452 192.93 305.345C193.322 305.18 193.679 305.145 194.004 305.241C194.328 305.337 194.571 305.553 194.734 305.89L194.147 306.138C194.056 305.959 193.918 305.842 193.733 305.788C193.553 305.733 193.349 305.753 193.121 305.85C192.91 305.939 192.762 306.055 192.675 306.198C192.589 306.34 192.576 306.485 192.638 306.631C192.687 306.747 192.764 306.829 192.87 306.875C192.978 306.915 193.098 306.936 193.23 306.936C193.364 306.93 193.544 306.912 193.77 306.882C194.053 306.844 194.288 306.826 194.476 306.827C194.663 306.824 194.84 306.866 195.008 306.952C195.18 307.036 195.314 307.185 195.409 307.398C195.491 307.591 195.511 307.788 195.469 307.988C195.426 308.189 195.326 308.376 195.166 308.549C195.009 308.717 194.804 308.855 194.55 308.962ZM197.394 305.602C197.239 305.236 197.178 304.887 197.21 304.555C197.24 304.218 197.352 303.92 197.546 303.66C197.745 303.399 198.012 303.198 198.347 303.056C198.781 302.873 199.183 302.827 199.551 302.92C199.924 303.01 200.234 303.224 200.482 303.559L199.851 303.827C199.7 303.637 199.51 303.517 199.281 303.467C199.056 303.415 198.815 303.443 198.557 303.552C198.222 303.694 198 303.925 197.892 304.244C197.782 304.559 197.815 304.927 197.994 305.348C198.173 305.774 198.415 306.059 198.72 306.204C199.024 306.349 199.344 306.351 199.679 306.209C199.937 306.1 200.127 305.949 200.248 305.756C200.369 305.563 200.415 305.341 200.385 305.09L201.017 304.823C201.075 305.224 201.008 305.594 200.817 305.934C200.624 306.268 200.315 306.526 199.889 306.706C199.554 306.847 199.223 306.898 198.898 306.859C198.576 306.817 198.284 306.69 198.022 306.476C197.759 306.263 197.55 305.971 197.394 305.602ZM203.845 305.034C203.514 305.174 203.181 305.226 202.846 305.19C202.516 305.152 202.216 305.028 201.945 304.819C201.676 304.603 201.465 304.312 201.31 303.947C201.158 303.586 201.101 303.235 201.139 302.894C201.18 302.548 201.305 302.244 201.514 301.984C201.722 301.719 201.993 301.515 202.328 301.374C202.663 301.232 202.998 301.179 203.333 301.215C203.665 301.247 203.967 301.368 204.238 301.577C204.513 301.785 204.728 302.072 204.883 302.437C205.037 302.803 205.092 303.16 205.046 303.508C205.004 303.85 204.876 304.155 204.665 304.421C204.453 304.688 204.18 304.892 203.845 305.034ZM203.627 304.518C203.837 304.429 204.014 304.296 204.157 304.119C204.3 303.942 204.386 303.731 204.414 303.486C204.447 303.24 204.403 302.974 204.283 302.691C204.163 302.407 204.005 302.19 203.81 302.039C203.615 301.889 203.407 301.804 203.186 301.786C202.964 301.764 202.748 301.797 202.537 301.886C202.322 301.977 202.145 302.11 202.006 302.285C201.87 302.454 201.79 302.66 201.766 302.903C201.742 303.146 201.79 303.41 201.91 303.693C202.032 303.981 202.186 304.202 202.373 304.357C202.564 304.509 202.768 304.597 202.986 304.622C203.203 304.642 203.416 304.607 203.627 304.518ZM205.432 302.197C205.28 301.836 205.219 301.489 205.251 301.157C205.281 300.82 205.391 300.523 205.581 300.265C205.775 300.006 206.031 299.809 206.349 299.674C206.625 299.558 206.908 299.515 207.198 299.544C207.488 299.568 207.738 299.658 207.95 299.811L207.16 297.941L207.753 297.691L209.769 302.462L209.176 302.713L208.895 302.049C208.868 302.308 208.77 302.555 208.6 302.789C208.429 303.018 208.19 303.198 207.885 303.327C207.571 303.459 207.253 303.503 206.929 303.457C206.61 303.409 206.319 303.277 206.055 303.059C205.79 302.841 205.583 302.554 205.432 302.197ZM208.427 300.94C208.314 300.673 208.162 300.464 207.971 300.311C207.78 300.159 207.57 300.07 207.342 300.045C207.116 300.014 206.893 300.045 206.674 300.137C206.455 300.23 206.277 300.366 206.14 300.546C206.003 300.725 205.923 300.936 205.899 301.18C205.875 301.423 205.919 301.677 206.032 301.944C206.146 302.215 206.3 302.429 206.493 302.585C206.684 302.737 206.892 302.829 207.118 302.86C207.342 302.887 207.564 302.854 207.783 302.762C208.002 302.669 208.181 302.533 208.317 302.354C208.457 302.168 208.539 301.954 208.562 301.711C208.585 301.463 208.539 301.206 208.427 300.94ZM213.181 298.779C213.228 298.89 213.272 299.011 213.311 299.141L210.487 300.335C210.656 300.674 210.889 300.897 211.188 301.004C211.489 301.105 211.794 301.09 212.104 300.959C212.357 300.852 212.543 300.705 212.662 300.518C212.783 300.325 212.836 300.115 212.821 299.888L213.453 299.621C213.502 300.001 213.43 300.358 213.237 300.693C213.043 301.023 212.735 301.277 212.313 301.455C211.978 301.597 211.645 301.649 211.315 301.611C210.99 301.571 210.693 301.446 210.427 301.234C210.158 301.019 209.947 300.728 209.792 300.363C209.638 299.997 209.576 299.646 209.605 299.309C209.635 298.972 209.751 298.675 209.951 298.418C210.154 298.155 210.427 297.951 210.771 297.806C211.107 297.664 211.434 297.612 211.754 297.649C212.073 297.686 212.357 297.805 212.603 298.004C212.852 298.198 213.045 298.456 213.181 298.779ZM212.523 298.912C212.429 298.689 212.298 298.518 212.132 298.401C211.964 298.279 211.777 298.214 211.571 298.205C211.367 298.19 211.162 298.226 210.955 298.313C210.659 298.439 210.445 298.64 210.314 298.918C210.188 299.195 210.18 299.507 210.292 299.855L212.523 298.912ZM215.905 296.275L216.785 298.357C216.858 298.529 216.946 298.636 217.05 298.679C217.152 298.716 217.294 298.697 217.474 298.621L217.906 298.438L218.116 298.935L217.587 299.158C217.261 299.296 216.984 299.325 216.757 299.243C216.53 299.162 216.344 298.949 216.199 298.605L215.318 296.523L214.861 296.716L214.656 296.232L215.114 296.039L214.738 295.149L215.325 294.901L215.701 295.791L216.623 295.401L216.827 295.885L215.905 296.275ZM220.393 298.041C220.062 298.181 219.729 298.233 219.394 298.197C219.064 298.159 218.764 298.035 218.493 297.826C218.224 297.61 218.013 297.319 217.858 296.954C217.706 296.593 217.649 296.242 217.687 295.902C217.728 295.555 217.853 295.251 218.062 294.991C218.27 294.726 218.541 294.523 218.876 294.381C219.211 294.239 219.546 294.186 219.881 294.222C220.213 294.254 220.515 294.375 220.786 294.584C221.061 294.792 221.276 295.079 221.431 295.444C221.585 295.81 221.64 296.167 221.594 296.515C221.552 296.857 221.424 297.162 221.213 297.429C221.001 297.695 220.728 297.9 220.393 298.041ZM220.175 297.525C220.385 297.436 220.562 297.303 220.705 297.126C220.848 296.949 220.934 296.739 220.962 296.494C220.995 296.247 220.951 295.982 220.831 295.698C220.711 295.414 220.553 295.197 220.358 295.046C220.163 294.896 219.955 294.812 219.734 294.793C219.512 294.771 219.296 294.804 219.085 294.893C218.87 294.984 218.693 295.117 218.554 295.292C218.418 295.461 218.338 295.667 218.314 295.91C218.29 296.153 218.338 296.417 218.458 296.701C218.58 296.989 218.734 297.21 218.921 297.364C219.112 297.516 219.316 297.604 219.534 297.629C219.751 297.649 219.964 297.614 220.175 297.525ZM227.091 292.901C227.138 293.012 227.181 293.133 227.221 293.263L224.397 294.457C224.566 294.796 224.799 295.019 225.098 295.126C225.399 295.227 225.704 295.212 226.013 295.081C226.267 294.974 226.453 294.827 226.572 294.64C226.693 294.447 226.746 294.237 226.731 294.01L227.363 293.743C227.412 294.123 227.34 294.48 227.147 294.815C226.952 295.145 226.644 295.399 226.223 295.577C225.888 295.719 225.555 295.771 225.225 295.733C224.899 295.694 224.603 295.568 224.336 295.356C224.068 295.141 223.856 294.85 223.702 294.485C223.547 294.119 223.485 293.768 223.515 293.431C223.545 293.094 223.66 292.797 223.861 292.54C224.064 292.277 224.337 292.073 224.681 291.928C225.016 291.786 225.344 291.734 225.663 291.771C225.983 291.808 226.266 291.927 226.513 292.127C226.762 292.32 226.954 292.578 227.091 292.901ZM226.433 293.034C226.338 292.811 226.208 292.64 226.042 292.523C225.874 292.401 225.687 292.336 225.48 292.327C225.276 292.312 225.071 292.348 224.865 292.435C224.568 292.561 224.355 292.762 224.224 293.041C224.098 293.317 224.09 293.629 224.202 293.977L226.433 293.034ZM228.87 290.15C229.3 289.968 229.704 289.952 230.081 290.102C230.456 290.247 230.748 290.565 230.955 291.055L231.835 293.138L231.255 293.383L230.41 291.384C230.261 291.032 230.059 290.8 229.805 290.69C229.549 290.575 229.268 290.582 228.963 290.711C228.653 290.842 228.447 291.043 228.344 291.315C228.245 291.584 228.274 291.904 228.43 292.274L229.256 294.228L228.669 294.475L227.176 290.942L227.762 290.694L227.975 291.197C228.015 290.967 228.113 290.761 228.269 290.579C228.429 290.395 228.629 290.252 228.87 290.15ZM232.22 289.38L233.1 291.463C233.173 291.635 233.261 291.742 233.365 291.784C233.467 291.822 233.609 291.803 233.789 291.727L234.221 291.544L234.431 292.041L233.902 292.264C233.576 292.402 233.299 292.43 233.072 292.349C232.845 292.267 232.659 292.055 232.514 291.711L231.633 289.628L231.176 289.822L230.971 289.338L231.429 289.145L231.053 288.255L231.64 288.007L232.016 288.897L232.938 288.507L233.142 288.991L232.22 289.38ZM237.562 288.476C237.609 288.587 237.653 288.708 237.693 288.838L234.868 290.032C235.037 290.371 235.271 290.594 235.569 290.701C235.87 290.802 236.175 290.787 236.485 290.656C236.738 290.549 236.925 290.402 237.043 290.215C237.164 290.022 237.217 289.812 237.203 289.585L237.835 289.318C237.883 289.698 237.812 290.055 237.619 290.39C237.424 290.72 237.116 290.974 236.695 291.152C236.359 291.294 236.027 291.346 235.697 291.308C235.371 291.269 235.075 291.143 234.808 290.931C234.539 290.716 234.328 290.425 234.173 290.06C234.019 289.694 233.957 289.343 233.987 289.006C234.017 288.669 234.132 288.372 234.332 288.115C234.535 287.852 234.809 287.648 235.152 287.503C235.488 287.361 235.815 287.309 236.135 287.346C236.455 287.383 236.738 287.502 236.984 287.701C237.233 287.895 237.426 288.153 237.562 288.476ZM236.904 288.609C236.81 288.386 236.68 288.215 236.513 288.098C236.346 287.976 236.158 287.911 235.952 287.902C235.748 287.887 235.543 287.923 235.336 288.01C235.04 288.136 234.826 288.337 234.696 288.615C234.569 288.892 234.562 289.204 234.673 289.552L236.904 288.609ZM238.477 286.843C238.494 286.597 238.574 286.379 238.716 286.187C238.862 285.993 239.073 285.839 239.348 285.722L239.604 286.328L239.449 286.394C238.792 286.672 238.614 287.167 238.915 287.881L239.727 289.802L239.14 290.05L237.647 286.517L238.234 286.269L238.477 286.843ZM242.294 286.621C242.141 286.259 242.081 285.913 242.112 285.58C242.142 285.243 242.252 284.946 242.442 284.688C242.637 284.429 242.891 284.233 243.204 284.1C243.514 283.969 243.811 283.923 244.095 283.96C244.379 283.997 244.62 284.092 244.817 284.247L244.544 283.602L245.138 283.352L246.631 286.885L246.037 287.136L245.76 286.478C245.731 286.734 245.629 286.979 245.455 287.215C245.284 287.444 245.045 287.624 244.74 287.753C244.426 287.885 244.11 287.928 243.791 287.88C243.472 287.832 243.18 287.7 242.916 287.482C242.652 287.265 242.444 286.977 242.294 286.621ZM245.288 285.363C245.176 285.096 245.024 284.887 244.833 284.734C244.642 284.582 244.432 284.493 244.204 284.468C243.978 284.437 243.755 284.468 243.536 284.561C243.317 284.653 243.138 284.789 243.001 284.969C242.865 285.148 242.784 285.36 242.76 285.603C242.736 285.846 242.781 286.101 242.893 286.367C243.008 286.638 243.161 286.852 243.354 287.008C243.545 287.161 243.754 287.252 243.98 287.284C244.204 287.31 244.425 287.278 244.645 287.185C244.864 287.092 245.042 286.956 245.179 286.777C245.318 286.591 245.4 286.377 245.424 286.134C245.446 285.886 245.401 285.629 245.288 285.363ZM246.991 283.336C247.022 283.085 247.123 282.845 247.294 282.615C247.468 282.379 247.708 282.197 248.013 282.068C248.327 281.936 248.642 281.891 248.96 281.934C249.281 281.976 249.573 282.103 249.836 282.316C250.096 282.525 250.303 282.811 250.455 283.172C250.606 283.528 250.667 283.877 250.639 284.219C250.611 284.56 250.501 284.862 250.308 285.126C250.12 285.388 249.869 285.585 249.555 285.718C249.254 285.845 248.96 285.891 248.671 285.856C248.385 285.814 248.14 285.718 247.934 285.567L248.917 287.895L248.331 288.143L246.129 282.933L246.716 282.685L246.991 283.336ZM249.856 283.425C249.743 283.159 249.591 282.949 249.4 282.797C249.209 282.644 248.999 282.556 248.771 282.531C248.547 282.504 248.325 282.537 248.106 282.629C247.891 282.72 247.714 282.858 247.574 283.044C247.437 283.223 247.356 283.438 247.329 283.687C247.305 283.93 247.349 284.183 247.46 284.445C247.572 284.712 247.725 284.923 247.918 285.08C248.113 285.23 248.324 285.321 248.55 285.352C248.778 285.377 249 285.344 249.215 285.254C249.434 285.161 249.612 285.025 249.749 284.846C249.889 284.66 249.97 284.446 249.994 284.202C250.016 283.955 249.97 283.696 249.856 283.425ZM251.348 281.495C251.379 281.244 251.48 281.003 251.652 280.774C251.826 280.538 252.065 280.356 252.371 280.227C252.684 280.094 253 280.05 253.317 280.093C253.639 280.134 253.93 280.262 254.193 280.475C254.453 280.684 254.66 280.969 254.813 281.33C254.963 281.687 255.025 282.036 254.997 282.377C254.969 282.718 254.858 283.021 254.666 283.285C254.478 283.547 254.227 283.744 253.913 283.876C253.612 284.004 253.317 284.05 253.029 284.014C252.743 283.973 252.497 283.877 252.291 283.726L253.275 286.053L252.688 286.301L250.486 281.091L251.073 280.843L251.348 281.495ZM254.213 281.584C254.1 281.317 253.949 281.108 253.758 280.955C253.567 280.803 253.357 280.714 253.128 280.689C252.904 280.663 252.683 280.695 252.463 280.788C252.248 280.879 252.071 281.017 251.932 281.203C251.795 281.382 251.713 281.596 251.687 281.846C251.663 282.089 251.706 282.342 251.817 282.604C251.93 282.87 252.082 283.082 252.275 283.238C252.471 283.389 252.681 283.48 252.907 283.511C253.136 283.536 253.357 283.503 253.572 283.412C253.792 283.32 253.97 283.184 254.107 283.004C254.246 282.819 254.328 282.604 254.352 282.361C254.374 282.114 254.327 281.855 254.213 281.584ZM254.907 277.764L256.924 282.536L256.337 282.784L254.321 278.012L254.907 277.764ZM256.491 277.878C256.379 277.925 256.269 277.926 256.158 277.881C256.048 277.837 255.97 277.759 255.923 277.647C255.875 277.535 255.874 277.424 255.919 277.314C255.963 277.204 256.042 277.125 256.153 277.078C256.261 277.033 256.367 277.033 256.473 277.08C256.583 277.124 256.662 277.203 256.709 277.314C256.756 277.426 256.758 277.537 256.713 277.647C256.673 277.755 256.599 277.832 256.491 277.878ZM257.017 278.332L258.511 281.865L257.924 282.113L256.431 278.58L257.017 278.332ZM258.542 279.762C258.388 279.397 258.326 279.048 258.358 278.715C258.388 278.378 258.5 278.08 258.694 277.821C258.893 277.559 259.16 277.358 259.495 277.216C259.929 277.033 260.331 276.987 260.699 277.08C261.072 277.17 261.382 277.384 261.631 277.72L260.999 277.987C260.848 277.797 260.658 277.677 260.429 277.627C260.204 277.575 259.963 277.604 259.705 277.713C259.37 277.854 259.148 278.085 259.04 278.404C258.93 278.719 258.964 279.087 259.142 279.509C259.322 279.934 259.564 280.219 259.868 280.364C260.173 280.509 260.492 280.511 260.828 280.369C261.086 280.26 261.275 280.109 261.396 279.916C261.517 279.723 261.563 279.501 261.533 279.25L262.165 278.983C262.223 279.384 262.156 279.755 261.965 280.094C261.772 280.428 261.463 280.686 261.038 280.866C260.702 281.007 260.372 281.058 260.046 281.019C259.724 280.977 259.432 280.85 259.17 280.636C258.908 280.423 258.698 280.132 258.542 279.762ZM262.456 278.1C262.303 277.739 262.243 277.392 262.275 277.06C262.305 276.723 262.415 276.426 262.605 276.168C262.799 275.909 263.053 275.713 263.367 275.58C263.676 275.449 263.973 275.402 264.257 275.439C264.541 275.476 264.782 275.572 264.979 275.727L264.707 275.082L265.3 274.832L266.793 278.365L266.2 278.616L265.922 277.958C265.893 278.213 265.792 278.459 265.618 278.695C265.446 278.924 265.208 279.103 264.903 279.232C264.589 279.365 264.272 279.407 263.953 279.36C263.634 279.312 263.343 279.18 263.078 278.962C262.814 278.744 262.607 278.457 262.456 278.1ZM265.451 276.843C265.338 276.576 265.186 276.367 264.995 276.214C264.804 276.062 264.594 275.973 264.366 275.948C264.14 275.917 263.917 275.948 263.698 276.04C263.479 276.133 263.301 276.269 263.164 276.449C263.027 276.628 262.946 276.839 262.923 277.083C262.899 277.326 262.943 277.58 263.056 277.847C263.17 278.118 263.324 278.332 263.517 278.488C263.708 278.64 263.916 278.732 264.142 278.763C264.366 278.79 264.588 278.757 264.807 278.665C265.026 278.572 265.204 278.436 265.341 278.257C265.481 278.071 265.562 277.857 265.586 277.614C265.608 277.366 265.563 277.109 265.451 276.843ZM267.212 274.594L268.092 276.676C268.164 276.848 268.253 276.955 268.357 276.998C268.459 277.036 268.6 277.016 268.781 276.94L269.213 276.757L269.422 277.254L268.894 277.477C268.567 277.615 268.29 277.644 268.063 277.562C267.836 277.481 267.65 277.268 267.505 276.924L266.625 274.842L266.167 275.035L265.963 274.552L266.42 274.358L266.044 273.468L266.631 273.22L267.007 274.11L267.929 273.721L268.134 274.204L267.212 274.594ZM268.701 272.718C268.589 272.765 268.478 272.767 268.368 272.722C268.258 272.677 268.179 272.599 268.132 272.487C268.085 272.376 268.084 272.265 268.128 272.155C268.173 272.044 268.251 271.966 268.363 271.919C268.47 271.873 268.577 271.874 268.683 271.92C268.793 271.965 268.871 272.043 268.919 272.155C268.966 272.267 268.967 272.378 268.922 272.488C268.882 272.596 268.808 272.673 268.701 272.718ZM269.227 273.172L270.72 276.706L270.133 276.954L268.64 273.42L269.227 273.172ZM273.286 275.69C272.955 275.83 272.622 275.882 272.288 275.846C271.958 275.808 271.657 275.684 271.386 275.474C271.117 275.258 270.906 274.968 270.752 274.602C270.599 274.241 270.542 273.891 270.58 273.55C270.621 273.203 270.746 272.9 270.955 272.639C271.163 272.374 271.434 272.171 271.769 272.029C272.105 271.888 272.439 271.835 272.774 271.871C273.106 271.903 273.408 272.023 273.679 272.233C273.954 272.441 274.169 272.728 274.324 273.093C274.478 273.458 274.533 273.815 274.487 274.164C274.445 274.506 274.317 274.811 274.106 275.077C273.894 275.344 273.621 275.548 273.286 275.69ZM273.068 275.174C273.278 275.085 273.455 274.952 273.598 274.775C273.741 274.598 273.827 274.387 273.855 274.142C273.888 273.895 273.844 273.63 273.724 273.346C273.604 273.063 273.447 272.846 273.251 272.695C273.056 272.545 272.848 272.46 272.628 272.442C272.405 272.419 272.189 272.453 271.978 272.542C271.763 272.632 271.586 272.765 271.448 272.94C271.311 273.11 271.231 273.316 271.207 273.559C271.183 273.802 271.231 274.065 271.351 274.349C271.473 274.637 271.627 274.858 271.814 275.012C272.005 275.165 272.209 275.253 272.427 275.277C272.644 275.297 272.857 275.263 273.068 275.174ZM276.046 270.215C276.476 270.033 276.879 270.017 277.256 270.167C277.632 270.312 277.923 270.63 278.13 271.12L279.01 273.202L278.43 273.448L277.585 271.449C277.437 271.096 277.235 270.865 276.981 270.754C276.724 270.64 276.444 270.647 276.138 270.776C275.829 270.907 275.623 271.108 275.52 271.379C275.421 271.649 275.449 271.969 275.606 272.338L276.431 274.292L275.845 274.54L274.351 271.007L274.938 270.759L275.151 271.262C275.19 271.032 275.288 270.826 275.444 270.644C275.605 270.459 275.805 270.316 276.046 270.215Z" fill="#58708A"/>
<circle cx="189.5" cy="361.5" r="7.5" fill="#31AEFD"/>
<circle cx="219.5" cy="348.5" r="7.5" fill="#31AEFD"/>
<circle cx="248.5" cy="335.5" r="7.5" fill="#31AEFD"/>
<circle cx="276.5" cy="322.5" r="7.5" fill="#2C527A"/>
<path d="M195.861 424.235L195.404 423.167L197.825 422.133L201.799 431.442L200.614 431.948L197.097 423.708L195.861 424.235Z" fill="white"/>
<path d="M212.519 464.392L212.14 463.503L213.988 455.316L215.392 454.717L218.008 460.846L219.295 460.297L219.73 461.314L218.442 461.863L219.327 463.936L218.168 464.431L217.283 462.358L212.519 464.392ZM214.806 456.413L213.437 462.797L216.901 461.319L214.806 456.413Z" fill="white"/>
<path d="M231.833 486.503L231.838 496.426L230.653 496.932L230.75 487.102L225.78 489.224L225.351 488.22L231.454 485.614L231.833 486.503Z" fill="white"/>
<path d="M252.145 409.464C252.861 408.123 253.409 407.042 253.789 406.22C254.165 405.39 254.433 404.58 254.594 403.791C254.759 402.99 254.715 402.293 254.463 401.701C254.224 401.143 253.9 400.764 253.49 400.563C253.085 400.351 252.582 400.373 251.981 400.629C251.397 400.879 251.021 401.257 250.852 401.766C250.688 402.262 250.724 402.82 250.958 403.44L249.825 403.924C249.449 402.948 249.424 402.081 249.75 401.323C250.076 400.565 250.672 400.001 251.539 399.631C252.423 399.253 253.227 399.199 253.951 399.469C254.684 399.734 255.233 400.296 255.6 401.155C255.904 401.867 255.986 402.654 255.846 403.515C255.711 404.365 255.483 405.162 255.163 405.908C254.838 406.645 254.4 407.533 253.848 408.57L258.277 406.679L258.695 407.658L252.502 410.301L252.145 409.464Z" fill="white"/>
<path d="M269.083 432.518L264.564 434.447L265.817 437.383C265.897 437.024 266.094 436.676 266.407 436.34C266.716 435.994 267.094 435.727 267.54 435.536C268.253 435.232 268.896 435.135 269.471 435.245C270.042 435.346 270.523 435.592 270.913 435.984C271.308 436.363 271.618 436.815 271.841 437.338C272.105 437.956 272.226 438.559 272.203 439.148C272.18 439.736 271.989 440.274 271.629 440.763C271.278 441.247 270.75 441.64 270.046 441.941C269.145 442.325 268.316 442.405 267.56 442.18C266.805 441.954 266.202 441.481 265.752 440.76L266.898 440.271C267.218 440.712 267.617 440.993 268.095 441.114C268.573 441.235 269.086 441.178 269.636 440.944C270.314 440.654 270.739 440.234 270.91 439.684C271.077 439.126 271.018 438.512 270.732 437.842C270.446 437.173 270.055 436.731 269.558 436.517C269.057 436.294 268.471 436.326 267.802 436.612C267.347 436.806 266.995 437.088 266.747 437.458C266.504 437.815 266.386 438.216 266.393 438.66L265.285 439.132L263.043 433.879L268.644 431.488L269.083 432.518Z" fill="white"/>
<path d="M281.32 469.777C280.759 469.793 280.273 469.676 279.861 469.426C279.45 469.175 279.134 468.792 278.914 468.277C278.716 467.814 278.655 467.348 278.729 466.88C278.799 466.403 279.016 465.96 279.38 465.552C279.748 465.131 280.258 464.781 280.911 464.502C281.563 464.224 282.164 464.099 282.714 464.128C283.27 464.145 283.744 464.293 284.137 464.571C284.535 464.838 284.832 465.203 285.03 465.666C285.243 466.164 285.297 466.659 285.192 467.15C285.083 467.633 284.836 468.063 284.449 468.441C285.051 468.377 285.594 468.485 286.079 468.765C286.569 469.033 286.937 469.455 287.182 470.03C287.42 470.588 287.492 471.136 287.397 471.674C287.298 472.203 287.045 472.692 286.637 473.14C286.235 473.575 285.707 473.932 285.055 474.211C284.403 474.489 283.78 474.623 283.187 474.613C282.598 474.59 282.079 474.431 281.628 474.136C281.174 473.833 280.828 473.402 280.59 472.844C280.344 472.269 280.288 471.709 280.421 471.165C280.554 470.622 280.854 470.159 281.32 469.777ZM283.958 466.292C283.734 465.768 283.39 465.438 282.926 465.301C282.462 465.165 281.929 465.224 281.328 465.481C280.736 465.734 280.329 466.075 280.106 466.505C279.884 466.935 279.886 467.416 280.113 467.948C280.319 468.429 280.659 468.74 281.136 468.882C281.621 469.019 282.147 468.968 282.713 468.726C283.289 468.48 283.69 468.136 283.917 467.694C284.149 467.24 284.163 466.772 283.958 466.292ZM283.098 469.627C282.463 469.898 282.008 470.27 281.733 470.743C281.454 471.207 281.441 471.735 281.694 472.327C281.928 472.877 282.31 473.236 282.839 473.406C283.377 473.572 283.976 473.514 284.637 473.232C285.298 472.95 285.75 472.559 285.994 472.06C286.237 471.56 286.241 471.035 286.007 470.486C285.761 469.911 285.377 469.557 284.854 469.425C284.327 469.285 283.742 469.352 283.098 469.627Z" fill="white"/>
<path d="M301.688 381.389C301.411 380.574 301.452 379.826 301.811 379.145C302.17 378.464 302.787 377.936 303.662 377.563C304.246 377.314 304.794 377.206 305.306 377.241C305.823 377.264 306.266 377.41 306.635 377.679C307.012 377.944 307.297 378.304 307.492 378.759C307.719 379.292 307.76 379.817 307.616 380.335C307.481 380.849 307.192 381.267 306.75 381.587L306.778 381.652C307.394 381.551 307.952 381.633 308.45 381.897C308.949 382.161 309.337 382.619 309.616 383.272C309.825 383.761 309.902 384.251 309.847 384.741C309.789 385.222 309.584 385.67 309.233 386.084C308.882 386.498 308.393 386.838 307.766 387.106C306.857 387.494 306.009 387.577 305.224 387.354C304.435 387.122 303.819 386.583 303.377 385.737L304.51 385.253C304.79 385.743 305.18 386.074 305.679 386.246C306.179 386.418 306.729 386.376 307.33 386.12C307.931 385.863 308.32 385.514 308.497 385.074C308.679 384.62 308.664 384.145 308.452 383.647C308.177 383.003 307.764 382.631 307.214 382.531C306.664 382.431 305.955 382.566 305.089 382.936L304.792 383.063L304.375 382.084L304.684 381.952C305.47 381.606 306.011 381.223 306.309 380.802C306.602 380.372 306.635 379.891 306.408 379.359C306.214 378.904 305.908 378.603 305.49 378.457C305.081 378.307 304.602 378.349 304.052 378.583C303.52 378.811 303.15 379.131 302.941 379.545C302.732 379.959 302.696 380.411 302.834 380.9L301.688 381.389Z" fill="white"/>
<path d="M319.848 410.034C319.252 409.162 318.461 408.937 317.474 409.358C316.71 409.684 316.265 410.224 316.14 410.977C316.012 411.722 316.24 412.767 316.824 414.111C316.83 413.58 317.008 413.093 317.357 412.65C317.71 412.195 318.171 411.846 318.737 411.604C319.621 411.227 320.442 411.201 321.201 411.527C321.967 411.849 322.558 412.495 322.972 413.465C323.221 414.049 323.328 414.622 323.295 415.185C323.269 415.743 323.084 416.259 322.737 416.732C322.4 417.2 321.905 417.574 321.252 417.853C320.368 418.23 319.593 418.328 318.926 418.145C318.26 417.963 317.68 417.566 317.185 416.955C316.691 416.344 316.226 415.528 315.79 414.506C314.445 411.356 314.871 409.312 317.069 408.374C317.91 408.015 318.668 407.96 319.343 408.21C320.018 408.46 320.547 408.914 320.929 409.572L319.848 410.034ZM318.916 412.7C318.547 412.858 318.232 413.083 317.972 413.377C317.708 413.662 317.539 414.003 317.465 414.4C317.395 414.785 317.454 415.196 317.641 415.634C317.92 416.287 318.336 416.738 318.889 416.989C319.439 417.231 320.066 417.202 320.77 416.902C321.371 416.645 321.769 416.257 321.963 415.738C322.162 415.206 322.126 414.623 321.855 413.988C321.569 413.318 321.174 412.868 320.669 412.637C320.161 412.397 319.577 412.418 318.916 412.7Z" fill="white"/>
<path d="M334.128 447.203C334.422 447.656 334.781 447.949 335.204 448.083C335.635 448.214 336.116 448.165 336.649 447.938C337.361 447.634 337.766 447.131 337.862 446.431C337.967 445.726 337.729 444.717 337.148 443.402C337.132 443.865 336.962 444.298 336.637 444.701C336.308 445.095 335.886 445.402 335.371 445.622C334.796 445.867 334.231 445.971 333.677 445.934C333.128 445.884 332.628 445.687 332.176 445.342C331.724 444.997 331.361 444.502 331.086 443.858C330.694 442.94 330.645 442.088 330.939 441.303C331.23 440.509 331.864 439.903 332.843 439.486C334.044 438.973 335.052 439.004 335.866 439.58C336.689 440.152 337.43 441.211 338.09 442.756C338.552 443.838 338.834 444.773 338.937 445.561C339.049 446.345 338.951 447.021 338.646 447.588C338.348 448.151 337.8 448.603 337.002 448.944C336.126 449.318 335.343 449.373 334.652 449.11C333.962 448.847 333.426 448.365 333.046 447.665L334.128 447.203ZM335.141 444.548C335.716 444.302 336.113 443.925 336.332 443.415C336.547 442.897 336.524 442.334 336.264 441.724C335.989 441.08 335.587 440.638 335.058 440.397C334.529 440.156 333.938 440.175 333.286 440.453C332.685 440.71 332.285 441.104 332.086 441.635C331.895 442.163 331.932 442.736 332.195 443.354C332.463 443.981 332.853 444.408 333.366 444.636C333.88 444.863 334.471 444.834 335.141 444.548Z" fill="white"/>
<defs>
<filter id="filter0_d_0_1" x="89" y="200.542" width="295.237" height="344.284" filterUnits="userSpaceOnUse" color-interpolation-filters="sRGB">
<feFlood flood-opacity="0" result="BackgroundImageFix"/>
<feColorMatrix in="SourceAlpha" type="matrix" values="0 0 0 0 0 0 0 0 0 0 0 0 0 0 0 0 0 0 127 0" result="hardAlpha"/>
<feOffset dy="4"/>
<feGaussianBlur stdDeviation="2"/>
<feComposite in2="hardAlpha" operator="out"/>
<feColorMatrix type="matrix" values="0 0 0 0 0 0 0 0 0 0 0 0 0 0 0 0 0 0 0.25 0"/>
<feBlend mode="normal" in2="BackgroundImageFix" result="effect1_dropShadow_0_1"/>
<feBlend mode="normal" in="SourceGraphic" in2="effect1_dropShadow_0_1" result="shape"/>
</filter>
<filter id="filter1_d_0_1" x="89" y="200.542" width="295.237" height="344.284" filterUnits="userSpaceOnUse" color-interpolation-filters="sRGB">
<feFlood flood-opacity="0" result="BackgroundImageFix"/>
<feColorMatrix in="SourceAlpha" type="matrix" values="0 0 0 0 0 0 0 0 0 0 0 0 0 0 0 0 0 0 127 0" result="hardAlpha"/>
<feOffset dy="4"/>
<feGaussianBlur stdDeviation="2"/>
<feComposite in2="hardAlpha" operator="out"/>
<feColorMatrix type="matrix" values="0 0 0 0 0 0 0 0 0 0 0 0 0 0 0 0 0 0 0.25 0"/>
<feBlend mode="normal" in2="BackgroundImageFix" result="effect1_dropShadow_0_1"/>
<feBlend mode="normal" in="SourceGraphic" in2="effect1_dropShadow_0_1" result="shape"/>
</filter>
<filter id="filter2_d_0_1" x="89" y="200.542" width="295.237" height="344.284" filterUnits="userSpaceOnUse" color-interpolation-filters="sRGB">
<feFlood flood-opacity="0" result="BackgroundImageFix"/>
<feColorMatrix in="SourceAlpha" type="matrix" values="0 0 0 0 0 0 0 0 0 0 0 0 0 0 0 0 0 0 127 0" result="hardAlpha"/>
<feOffset dy="4"/>
<feGaussianBlur stdDeviation="2"/>
<feComposite in2="hardAlpha" operator="out"/>
<feColorMatrix type="matrix" values="0 0 0 0 0 0 0 0 0 0 0 0 0 0 0 0 0 0 0.25 0"/>
<feBlend mode="normal" in2="BackgroundImageFix" result="effect1_dropShadow_0_1"/>
<feBlend mode="normal" in="SourceGraphic" in2="effect1_dropShadow_0_1" result="shape"/>
</filter>
</defs>
</svg>
